<svg xmlns="http://www.w3.org/2000/svg" viewBox="0 0 200 200"><defs><style>.cls-1{fill:#262a2b;}.cls-2{fill:none;stroke:#fff;stroke-linecap:round;stroke-linejoin:round;stroke-width:4.89px;}</style></defs><g id="Capa_2" data-name="Capa 2"><g id="Layer_1" data-name="Layer 1"><circle class="cls-1" cx="100" cy="100" r="100"/><path class="cls-2" d="M119.15,120.25h44a2.44,2.44,0,0,1,2.44,2.44v24.44a9.78,9.78,0,0,1-9.78,9.78H126.49a9.78,9.78,0,0,1-9.78-9.78V122.69A2.44,2.44,0,0,1,119.15,120.25Z"/><path class="cls-2" d="M124,120.25v-4.89a17.16,17.16,0,0,1,17.11-17.11h0a17.16,17.16,0,0,1,17.11,17.11v4.89"/><circle class="cls-2" cx="141.15" cy="134.91" r="4.89"/><line class="cls-2" x1="141.15" y1="139.8" x2="141.15" y2="147.14"/><path class="cls-2" d="M106.55,132.47H58.05a4.89,4.89,0,0,1-4.89-4.89V68.92A4.89,4.89,0,0,1,58.05,64h92.88a4.89,4.89,0,0,1,4.89,4.89V93.36"/><line class="cls-2" x1="65.38" y1="81.14" x2="141.15" y2="81.14"/><line class="cls-2" x1="65.38" y1="95.81" x2="119.15" y2="95.81"/><line class="cls-2" x1="65.38" y1="117.81" x2="75.16" y2="117.81"/></g></g></svg>