<svg xmlns="http://www.w3.org/2000/svg" viewBox="0 0 200 200"><defs><style>.cls-1{fill:#262a2b;}.cls-2{fill:#fff;}</style></defs><g id="Capa_2" data-name="Capa 2"><g id="Layer_1" data-name="Layer 1"><circle class="cls-1" cx="100" cy="100" r="100"/><g id="Element"><path class="cls-2" d="M128.2,104.1a7.75,7.75,0,1,0,7.75,7.75A7.75,7.75,0,0,0,128.2,104.1Zm0,11.92a4.18,4.18,0,1,1,4.18-4.17A4.18,4.18,0,0,1,128.2,116Z"/><path class="cls-2" d="M150.72,69.33H133.83a1.8,1.8,0,0,0-1.69,2.35A4.17,4.17,0,1,1,124,73a4.11,4.11,0,0,1,.23-1.31,1.79,1.79,0,0,0-1.69-2.35H49.82a9.21,9.21,0,0,0-9.19,9.2v47.21a9.2,9.2,0,0,0,9.19,9.19h72.77a1.7,1.7,0,0,0,1.81-1.79,1.78,1.78,0,0,0-.25-.91,3.74,3.74,0,0,1-.13-1,4.18,4.18,0,1,1,8.12,1.31,1.79,1.79,0,0,0,1.69,2.35h16.89a9.2,9.2,0,0,0,9.19-9.19V78.53A9.21,9.21,0,0,0,150.72,69.33Zm5.62,56.41a5.62,5.62,0,0,1-5.62,5.62H136v-.09a7.75,7.75,0,1,0-15.5,0v.09H49.82a5.62,5.62,0,0,1-5.62-5.62V78.53a5.62,5.62,0,0,1,5.62-5.62h70.63V73A7.75,7.75,0,0,0,136,73v-.08h14.77a5.62,5.62,0,0,1,5.62,5.62Z"/><path class="cls-2" d="M128.2,84.67A7.75,7.75,0,1,0,136,92.42,7.75,7.75,0,0,0,128.2,84.67Zm0,11.93a4.18,4.18,0,1,1,4.18-4.18A4.18,4.18,0,0,1,128.2,96.6Z"/><path class="cls-2" d="M98.3,111.14a1.75,1.75,0,0,0-1.2-.33h0a1.07,1.07,0,0,0-.3.06,1.8,1.8,0,0,0-.39.08l-8.61,3.72c-1.11-1.06-2.22-2.11-3.44-3.25l-1.6-1.51,14.87-8.56a1.78,1.78,0,0,0,.24-2.93L94,95.26a1.77,1.77,0,0,0-1.64-.33l-19,5.77c-.87-.93-1.69-1.83-2.44-2.66-2.62-2.9-4.88-5.4-7.76-6.91-5.28-2.78-11.75-1.56-13.37.59-1.44,1.91-.21,4.82,4,9.43a104.23,104.23,0,0,0,13.66,12.08c10.4,7.83,17.68,11.55,22.69,11.55a8.16,8.16,0,0,0,1.51-.13c1.8-.3,5.31-2.52,7.13-3.73l7.76,3.42a1.66,1.66,0,0,0,.72.15,1.79,1.79,0,0,0,1.43-.71l1.27-1.69a1.78,1.78,0,0,0-.35-2.5ZM92.46,98.63l1.13.92L80,107.35c-1.17-1.12-2.47-2.37-3.91-3.78Zm6.65,18.57a1.77,1.77,0,0,0-2.09.54c-2.35,1.58-5.22,3.25-6.06,3.39-3.9.66-11.1-3-21.45-10.75-11-8.31-16.18-14.7-16.74-16.6a10.62,10.62,0,0,1,8.66.51c2.31,1.22,4.28,3.39,6.77,6.15,1.36,1.5,2.9,3.21,4.73,5,3.81,3.75,6.58,6.34,9,8.58,1.51,1.4,2.86,2.67,4.24,4a1,1,0,0,0,.17.11,1.89,1.89,0,0,0,.3.19,1.8,1.8,0,0,0,.5.15c.1,0,.18.08.28.08a1.78,1.78,0,0,0,.71-.15L97,114.6l5.3,4Z"/><path class="cls-2" d="M73.57,86.28h33a1.79,1.79,0,1,0,0-3.57h-33a1.79,1.79,0,0,0,0,3.57Z"/></g></g></g></svg>