<svg xmlns="http://www.w3.org/2000/svg" viewBox="0 0 200 200"><defs><style>.cls-1{fill:#262a2b;}.cls-2{fill:#fff;}</style></defs><g id="Capa_2" data-name="Capa 2"><g id="Layer_1" data-name="Layer 1"><circle class="cls-1" cx="100" cy="100" r="100"/><path class="cls-2" d="M138.11,100.71c.16-.16.32-.33.47-.5s.27-.29.4-.43l.43-.48.38-.43c.14-.15.27-.31.4-.46l.36-.43.37-.45.34-.42.33-.44.32-.43c.11-.14.21-.29.31-.43l.29-.42c.1-.15.19-.3.29-.44l.27-.42.26-.44.25-.42.24-.44.22-.42c.08-.15.15-.3.22-.45s.14-.28.2-.42.14-.31.2-.46.13-.28.19-.43l.18-.47c.05-.14.11-.28.16-.43l.17-.48c0-.15.09-.3.14-.45l.15-.5.12-.44c0-.18.09-.36.14-.53s.07-.3.11-.45.07-.37.11-.55.07-.31.1-.47.06-.38.1-.58,0-.3.08-.46l.09-.62.06-.47c0-.22.05-.44.08-.66s0-.31.05-.48l.06-.7c0-.16,0-.32,0-.48l.06-.76c0-.16,0-.31,0-.48s0-.54,0-.81,0-.32,0-.48l0-.88c0-.16,0-.32,0-.48,0-.31,0-.63,0-1,0-.15,0-.31,0-.47,0-.35,0-.72,0-1.08,0-.14,0-.26,0-.4V73.48c0-.43,0-.87,0-1.31v-.33c0-.51,0-1,0-1.55v-.17c0-.53,0-1.07,0-1.63v-.18c0-.54,0-1.1,0-1.67v-.23c0-.65,0-1.31,0-2V64.2c-.09-5-.19-10.56-.19-17.37a1.79,1.79,0,0,0-.62-1.35,1.83,1.83,0,0,0-1.43-.42c-13.74,2-23.92,0-31.12-6.08a1.8,1.8,0,0,0-2.15-.12C102,45.1,91.46,47.19,80,45.07a1.81,1.81,0,0,0-1.47.39,1.77,1.77,0,0,0-.64,1.37c0,4.29,0,8.11-.06,11.61a50.13,50.13,0,0,1-6.09-.74,1.23,1.23,0,0,0-.27,0,1.8,1.8,0,0,0-1.19.4,1.79,1.79,0,0,0-.65,1.38c0,4.28,0,8.11-.06,11.61l-.39,0c-1.22-.08-2.45-.2-3.7-.37l-1.11-.19-.89-.14h-.08a1.76,1.76,0,0,0-1.38.39,1.78,1.78,0,0,0-.65,1.37c0,4.6,0,8.33-.05,11.59A48,48,0,0,1,55.21,83a1.83,1.83,0,0,0-1.46.39,1.78,1.78,0,0,0-.64,1.38c0,5.42,0,10.17-.09,14.36v.11c-.29,31.89-.09,32.36,20.91,50.71l.15.13c3.55,3.1,7.57,6.62,12.34,10.94a1.79,1.79,0,0,0,2.41,0c4.37-4,8.14-7.33,11.46-10.29l.17-.14,2.33-2.08c11-9.8,15.86-14.45,18-21.65,4.6-4.69,7-8.31,8.25-12.65.8-.81,1.53-1.59,2.2-2.35a27.36,27.36,0,0,0,5.72-9.19l.21.21V102c.05-.15.1-.29.14-.43l.09-.09h0c.1-.1.2-.2.29-.31ZM63,87.34h0a2.43,2.43,0,0,1,.27,0,43.36,43.36,0,0,0,10.23-1.06h0l.13,0h0c.51-.12,1-.25,1.57-.4l.39-.09c.69-.2,1.38-.41,2.09-.65a44.69,44.69,0,0,0,8.52-3.92l1.22-.74c6.14,4.75,14,7,23.77,6.84,1.51,0,3.06-.11,4.66-.25.8-.07,1.61-.15,2.44-.25,0,6,.11,11,.19,15.48v.26c.13,7.07.22,12.18-.06,16.31h0c0,.78-.12,1.52-.2,2.23v.13s0,.06,0,.09c-.06.49-.12,1-.21,1.46s-.15.84-.24,1.25l-.33,1.37h0v0c-1.94,7-7,11.5-19.4,22.47l-.2.18c-3,2.67-6.4,5.68-10.26,9.19-4.47-4-8.26-7.34-11.33-10-20-17.44-20-17.44-19.68-48.06,0-3.66.07-7.74.08-12.33A49.19,49.19,0,0,0,63,87.34Zm80.13-38.46c0,6,.11,11,.19,15.46v.14c.1,6,.19,10.62,0,14.42-.29,7.24-1.42,11.4-4.86,15.89,0-.41.07-.84.09-1.27l0-.42c0-.59.06-1.2.08-1.83h0c0-1.29.07-2.67.07-4.14,0-2.91-.05-6.22-.11-10.06-.09-5-.19-10.67-.19-17.6a2.58,2.58,0,0,0,0-.39,1.78,1.78,0,0,0-.58-1h0a1.83,1.83,0,0,0-.46-.28l-.15-.06a2,2,0,0,0-.48-.09h-.08l-.26,0c-11.17,1.63-20,.62-26.77-3.09a26.18,26.18,0,0,1-4.37-3,1.79,1.79,0,0,0-2.15-.13c-.86.57-1.72,1.11-2.6,1.61-.3.17-.61.32-.91.48-.58.32-1.16.63-1.74.92-.36.17-.73.32-1.1.48-.54.24-1.07.49-1.62.71L94,56.1c-.53.2-1.06.39-1.6.56s-.81.23-1.21.35-1.07.3-1.62.43l-1.24.25c-.54.11-1.08.22-1.63.31s-.85.11-1.27.17l-1.65.18c-.43,0-.87.06-1.3.08l-1.1,0c0-2.91.05-6.08.06-9.53a44.38,44.38,0,0,0,30.83-6.38C119.84,48.4,130,50.48,143.14,48.88Zm-66.8,13c.85.07,1.66.09,2.47.11l.45,0a1.66,1.66,0,0,0,.32,0h.75A43.78,43.78,0,0,0,104,55.18c7.58,5.85,17.69,7.93,30.89,6.32,0,6.19.11,11.41.19,15.71.13,7.56.22,13-.14,17.3-.09.84-.19,1.64-.3,2.46,0,.1,0,.21-.05.29s0,.13,0,.18c0,.26-.09.51-.14.75-.14.74-.29,1.38-.45,2h0a1.18,1.18,0,0,0,0,.2l-.06.18c-.16.55-.35,1.08-.55,1.61l-.11.24c-.21.52-.44,1-.7,1.53l-.12.21c-.27.52-.57,1-.9,1.55l-.09.12c-.35.55-.74,1.1-1.17,1.66,0-.07,0-.14,0-.2,0-.41.07-.84.11-1.3,0-.09,0-.18,0-.28v0l0-.66h0c.18-4,.1-8.95,0-15.14-.09-5-.2-10.7-.2-17.72a1.69,1.69,0,0,0-1.09-1.63l-.13-.06a2.1,2.1,0,0,0-.5-.09h-.07l-.25,0c-13.75,2-23.93,0-31.13-6.08a1.82,1.82,0,0,0-2.15-.13c-.85.57-1.71,1.1-2.59,1.59-.39.23-.79.42-1.19.63s-1,.52-1.44.76-1,.47-1.57.69-.74.33-1.11.48c-.59.24-1.19.44-1.79.65l-.94.32c-.63.2-1.27.38-1.91.55l-.88.23c-.64.15-1.29.28-1.94.4-.31.06-.61.13-.92.18-.63.1-1.26.18-1.9.25-.35,0-.7.09-1,.12-.58,0-1.16.08-1.75.11l-.77,0c0-2.92.05-6.09.05-9.54C74.27,61.73,75.32,61.85,76.34,61.93ZM64.92,74.21c1,.15,2.1.26,3.12.34s1.82.12,2.71.14H71a2.07,2.07,0,0,0,.35,0H72a44.29,44.29,0,0,0,23.81-6.91c7.56,5.83,17.67,7.9,30.86,6.32,0,6.27.12,11.51.2,15.75.11,6.39.2,11.44,0,15.47l0,.17v.1c0,.41-.06.82-.1,1.2a.53.53,0,0,1,0,.13c0,.62-.1,1.2-.18,1.81h0c0,.15,0,.29-.07.42v.09l0,.13c0,.13,0,.26-.06.44l0,.32v0s0,.05,0,.07v0a.18.18,0,0,0,0,.05c-.08.5-.18,1-.29,1.48h0a1.16,1.16,0,0,1,0,.18v0c0,.18-.1.38-.19.69a20.31,20.31,0,0,1-3.74,7.32c0-.33.06-.66.08-1,.3-4.36.21-9.58.08-16.8V102c-.08-4.93-.17-10.52-.17-17.28a1.76,1.76,0,0,0-.94-1.56h0a1.83,1.83,0,0,0-.32-.14h0a1.75,1.75,0,0,0-.33-.06h-.43c-13.75,2-23.93,0-31.12-6.09l-.06,0a1.59,1.59,0,0,0-.41-.26l-.13,0a1.3,1.3,0,0,0-.34-.08l-.17,0a1.57,1.57,0,0,0-.43,0l-.14,0a1.59,1.59,0,0,0-.46.21c-.73.47-1.45.93-2.18,1.35h0c-.85.51-1.71,1-2.59,1.4a40.17,40.17,0,0,1-5.25,2.2l-.23.08c-1.19.39-2.33.71-3.41,1l-.15,0h0l-.52.11-1.16.23a42.42,42.42,0,0,1-4.51.57h-.06c-.54,0-1.07.06-1.61.08h-.09C64.91,80.83,64.92,77.66,64.92,74.21Z"/><path class="cls-2" d="M78.36,128.14H97.13a4.34,4.34,0,0,0,4.34-4.32V108.64a1.8,1.8,0,0,0-1.8-1.79H97v-2a9.15,9.15,0,0,0-18.29,0v2H76a1.79,1.79,0,0,0-1.79,1.79V124A4.16,4.16,0,0,0,78.36,128.14Zm2.11-17.71H97.88v13.39a.73.73,0,0,1-.75.73H78.36a.59.59,0,0,1-.59-.56V110.43Zm12.92-3.58H82.26v-2a5.57,5.57,0,0,1,11.13,0Z"/><path class="cls-2" d="M82.17,121.29a1.79,1.79,0,0,0,1.79,1.8,1.8,1.8,0,0,0,1.26-.51L87.83,120l2.6,2.57A1.79,1.79,0,1,0,93,120l-2.57-2.54L93,114.94a1.79,1.79,0,0,0-2.52-2.55L87.83,115l-2.61-2.58a1.78,1.78,0,0,0-1.26-.52h0a1.8,1.8,0,0,0-1.27.54,1.78,1.78,0,0,0,0,2.53l2.57,2.55L82.71,120A1.8,1.8,0,0,0,82.17,121.29Z"/></g></g></svg>