<svg xmlns="http://www.w3.org/2000/svg" viewBox="0 0 200 200"><defs><style>.cls-1{fill:#262a2b;}.cls-2{fill:#fff;}</style></defs><g id="Capa_2" data-name="Capa 2"><g id="Layer_1" data-name="Layer 1"><circle class="cls-1" cx="100" cy="100" r="100"/><path class="cls-2" d="M162.84,77.57a2.89,2.89,0,0,1-4.94,2.05,82,82,0,0,0-115.8,0,2.9,2.9,0,0,1-4.94-2.05,2.84,2.84,0,0,1,.85-2,87.76,87.76,0,0,1,124,0A2.84,2.84,0,0,1,162.84,77.57Z"/><path class="cls-2" d="M144.39,96a2.89,2.89,0,0,1-4.94,2,55.87,55.87,0,0,0-78.9,0A2.9,2.9,0,0,1,56.45,94a61.66,61.66,0,0,1,87.1,0A2.9,2.9,0,0,1,144.39,96Z"/><path class="cls-2" d="M126,114.46a2.89,2.89,0,0,1-4.94,2.05,29.74,29.74,0,0,0-42,0,2.9,2.9,0,0,1-4.09-4.1,35.54,35.54,0,0,1,50.2,0A2.88,2.88,0,0,1,126,114.46Z"/><circle class="cls-2" cx="100" cy="139.64" r="10.47" transform="translate(-58.88 204.88) rotate(-76.72)"/></g></g></svg>