<svg xmlns="http://www.w3.org/2000/svg" viewBox="0 0 200 200"><defs><style>.cls-1{fill:#262a2b;}.cls-2{fill:none;stroke:#fff;stroke-miterlimit:10;stroke-width:5.21px;}</style></defs><g id="Capa_2" data-name="Capa 2"><g id="Layer_1" data-name="Layer 1"><circle class="cls-1" cx="100" cy="100" r="100"/><path class="cls-2" d="M125.12,148.59h0a11,11,0,0,0-16.66,5.27v0a2.91,2.91,0,0,1-5.22.51l0,0a11,11,0,0,0-17.37-1.94h0a2.91,2.91,0,0,1-5-1.65v0a11,11,0,0,0-15.08-8.83h0a2.91,2.91,0,0,1-3.88-3.53v-.06a11,11,0,0,0-10.18-14.18h0a2.91,2.91,0,0,1-2.11-4.81l0,0a11,11,0,0,0-3.54-17.09h0a2.91,2.91,0,0,1,0-5.25l.06,0a11,11,0,0,0,3.72-17v0a2.91,2.91,0,0,1,2.16-4.78h.07A11,11,0,0,0,62.46,61v0a2.91,2.91,0,0,1,3.92-3.49l.06,0a11,11,0,0,0,15.16-8.61v-.06a2.91,2.91,0,0,1,5-1.58l0,0A11,11,0,0,0,104,45.62l0,0a2.91,2.91,0,0,1,5.22.59v0a11,11,0,0,0,16.54,5.53l.06,0a2.92,2.92,0,0,1,4.52,2.67v0a11,11,0,0,0,12.85,11.79h.07a2.91,2.91,0,0,1,3.05,4.28h0a11,11,0,0,0,6.95,16h.07a2.91,2.91,0,0,1,1,5.15h0a11,11,0,0,0-.17,17.46l.05,0a2.91,2.91,0,0,1-1.14,5.12h0a11,11,0,0,0-7.25,15.9l0,0a2.91,2.91,0,0,1-3.12,4.22h0A11,11,0,0,0,129.69,146v0A2.91,2.91,0,0,1,125.12,148.59Z"/><circle class="cls-2" cx="100" cy="100" r="36.44"/><polyline class="cls-2" points="86.98 100 97.4 110.41 115.62 86.98"/></g></g></svg>