<svg xmlns="http://www.w3.org/2000/svg" viewBox="0 0 200 200"><defs><style>.cls-1{fill:#fff;}.cls-2{fill:none;stroke:#000;stroke-miterlimit:10;stroke-width:4.02px;}</style></defs><g id="Capa_2" data-name="Capa 2"><g id="Layer_1" data-name="Layer 1"><circle class="cls-1" cx="100" cy="100" r="100"/><path class="cls-2" d="M63.83,110.05V90a36.17,36.17,0,0,1,72.34,0v20.1"/><path class="cls-2" d="M136.17,92h6a4,4,0,0,1,4,4V108a4,4,0,0,1-4,4h-6a0,0,0,0,1,0,0V92A0,0,0,0,1,136.17,92Z"/><path class="cls-2" d="M53.79,92h6a4,4,0,0,1,4,4V108a4,4,0,0,1-4,4h-6a0,0,0,0,1,0,0V92A0,0,0,0,1,53.79,92Z" transform="translate(117.62 204.02) rotate(180)"/><path class="cls-2" d="M128.13,104v14.06a29.85,29.85,0,0,1-.22,3.56"/><path class="cls-2" d="M69.86,98H90a20.11,20.11,0,0,0,20.1-20.09A20.17,20.17,0,0,0,128.13,98"/><path class="cls-2" d="M71.87,104v14.06a28.12,28.12,0,0,0,49.65,18.09"/><path class="cls-2" d="M106,130.14H122.1a14.07,14.07,0,0,0,14.07-14.07v-4"/><circle class="cls-2" cx="100" cy="130.14" r="6.03"/></g></g></svg>