<svg xmlns="http://www.w3.org/2000/svg" viewBox="0 0 39.21 39.21"><defs><style>.cls-1{fill:#fff;}</style></defs><g id="Capa_2" data-name="Capa 2"><g id="Layer_1" data-name="Layer 1"><path class="cls-1" d="M31.63,0h-24A7.59,7.59,0,0,0,0,7.58v24a7.59,7.59,0,0,0,7.58,7.58h24a7.59,7.59,0,0,0,7.58-7.58v-24A7.59,7.59,0,0,0,31.63,0Zm2.18,4.52h.86v6.64l-6.62,0,0-6.64ZM14,15.58a6.89,6.89,0,0,1,11.19,0,7.39,7.39,0,0,1,.42.66,6.91,6.91,0,1,1-12,0A7.39,7.39,0,0,1,14,15.58Zm21.38,16a3.76,3.76,0,0,1-3.76,3.76h-24a3.76,3.76,0,0,1-3.76-3.76v-16H9.67c-.14.36-.27.73-.38,1.11a10.72,10.72,0,1,0,21,2.91,10.34,10.34,0,0,0-.42-2.91,8.54,8.54,0,0,0-.38-1.11h5.86v16Z"/></g></g></svg>