<svg xmlns="http://www.w3.org/2000/svg" viewBox="0 0 200 200"><defs><style>.cls-1{fill:#262a2b;}.cls-2{fill:#fff;stroke:#fff;stroke-miterlimit:10;stroke-width:2px;}</style></defs><g id="Capa_2" data-name="Capa 2"><g id="Layer_1" data-name="Layer 1"><circle class="cls-1" cx="100" cy="100" r="100"/><path class="cls-2" d="M134.12,109.17a.49.49,0,0,0,0-.24q-.12-14.3-.91-28.5c-.35-5.76-5.63-11.1-11.52-11.66-2.26-.21-4.52-.37-6.79-.52V41.71a5,5,0,0,0,1.39-4.25c-.17-2.9-3.09-3.51-4.6-3.43H88.34c-1.53-.1-4.46.53-4.63,3.43a5,5,0,0,0,1.39,4.25V68.25c-2.27.15-4.54.31-6.8.52-5.88.56-11.16,5.9-11.51,11.66-.54,9.46-.83,19-.91,28.5a.49.49,0,0,0,0,.24c-.1,12.69.19,25.4.91,38,.32,5.29,4.8,10.21,10.1,11.42v5.14A2.08,2.08,0,0,0,78.74,166H82.6a2.08,2.08,0,0,0,1.85-2.25v-4.42c5.17.33,10.36.51,15.55.51s10.38-.18,15.55-.51v4.42A2.08,2.08,0,0,0,117.4,166h3.86a2.08,2.08,0,0,0,1.85-2.25v-5.14c5.3-1.21,9.78-6.13,10.1-11.42C133.93,134.57,134.22,121.86,134.12,109.17ZM110.56,68V42.06h3.29V68.19ZM90.5,41.82s.06,0,.07-.09.93-2.28,2.65-2.39a10,10,0,0,1,3.06.5,14.47,14.47,0,0,0,3.72.6,14.05,14.05,0,0,0,3.72-.6,10,10,0,0,1,3.06-.5c1.54.1,2.52,1.9,2.72,2.32V68q-9.5-.37-19,0Zm-5.74-4.3c.16-2.58,3.39-2.45,3.55-2.44h23.41c.14,0,3.36-.15,3.52,2.44.14,2.34-.83,3.26-1.14,3.49h-3.75c-.4-.75-1.58-2.59-3.5-2.72a10.74,10.74,0,0,0-3.39.53,12.57,12.57,0,0,1-3.45.56h0a12.44,12.44,0,0,1-3.44-.56,10.88,10.88,0,0,0-3.4-.53c-1.92.13-3,2-3.4,2.72H85.9C85.58,40.77,84.62,39.85,84.76,37.52Zm1.39,4.54h3.3V68c-1.1,0-2.2.12-3.3.18ZM78.4,69.81q10.75-1,21.6-1c7.22,0,14.43.33,21.59,1,5.41.52,10.25,5.41,10.57,10.68.54,9.44.83,18.94.91,28.44a37.9,37.9,0,0,1-2.9,3.74c-1.94-8.25-8.25-22.86-9.55-25.81-3.1-7.08-8.16-8.92-10.19-9.38A71.14,71.14,0,0,0,100,76.63a71.14,71.14,0,0,0-10.43.85c-2,.46-7.09,2.3-10.19,9.38-1.3,3-7.61,17.56-9.55,25.81a37.9,37.9,0,0,1-2.9-3.74c.08-9.5.37-19,.91-28.44C68.16,75.22,73,70.33,78.4,69.81Zm39.33,46.49c-1.34-2.59-3.1-5.42-6-6.83-3.68-1.78-8-1.78-11.73-1.78s-8,0-11.73,1.78c-2.9,1.41-4.66,4.24-6,6.83-.68,1.31-1.31,2.67-1.92,4-3.88-1.26-7.25-4.13-9.66-6.71.36-1.69.94-3.71,1.64-5.87,12.51-9.64,27.5-9.13,27.69-9.12s15.14-.52,27.65,9.12c.7,2.16,1.28,4.18,1.64,5.87-2.41,2.58-5.78,5.45-9.66,6.71C119.05,119,118.42,117.62,117.73,116.3Zm-25-1.8-.29,0a5.34,5.34,0,0,0-.8,0c-.1,0-.25,0-.25,0s-.13-.2-.09-1.08a12.23,12.23,0,0,1,.74-3.68,12.28,12.28,0,0,1,.73,3.68A4.47,4.47,0,0,1,92.77,114.5Zm7.92-31.86h0a1.68,1.68,0,0,1-.29,0,5.34,5.34,0,0,0-.8,0c-.1,0-.25,0-.25,0s-.13-.2-.08-1.08a12.28,12.28,0,0,1,.73-3.68,12.28,12.28,0,0,1,.73,3.68h0A3.76,3.76,0,0,1,100.69,82.64Zm-2.07.78a1.26,1.26,0,0,0,1.09.25,2.81,2.81,0,0,1,.58,0l.34,0a1,1,0,0,0,.75-.27c.34-.32.45-.86.41-1.88A15.08,15.08,0,0,0,101,77.7a66.54,66.54,0,0,1,9.16.81c1.87.43,6.55,2.13,9.46,8.77,1,2.22,4.78,11,7.43,18.74-12.55-8.94-27-8.43-27.07-8.43s-14.55-.51-27.1,8.43c2.64-7.7,6.45-16.52,7.42-18.74,2.91-6.64,7.59-8.34,9.46-8.77A66.54,66.54,0,0,1,99,77.7a15.08,15.08,0,0,0-.75,3.84C98.17,82.56,98.28,83.1,98.62,83.42Zm-31.7,27.34c2,2.7,6.79,8.48,13,10.54-.7,1.62-1.37,3.26-2,4.89A189.75,189.75,0,0,0,70.73,147a45.12,45.12,0,0,1-1.57,4.48,10.33,10.33,0,0,1-1.32-4.36C67.16,135.05,66.86,122.9,66.92,110.76Zm16.47,53c0,.65-.36,1.19-.79,1.19H78.74c-.44,0-.8-.54-.8-1.19v-4.95l.37.05c1.69.16,3.39.29,5.08.41Zm38.67,0c0,.65-.36,1.19-.8,1.19H117.4c-.43,0-.79-.54-.79-1.19v-4.49c1.69-.12,3.39-.25,5.08-.41h0l.36-.05Zm-.47-5.94a239.53,239.53,0,0,1-43.18,0,12.23,12.23,0,0,1-8.56-5.2,52.67,52.67,0,0,0,1.89-5.31,190.79,190.79,0,0,1,7.14-20.77c1.33-3.24,2.7-6.6,4.32-9.73,1.26-2.43,2.9-5.09,5.53-6.36a14.38,14.38,0,0,1,2.3-.84,14.8,14.8,0,0,0-.74,3.82c-.05,1,.07,1.56.41,1.88a1.25,1.25,0,0,0,1.08.25,2.91,2.91,0,0,1,.59,0l.34,0a1,1,0,0,0,.75-.27c.34-.32.45-.86.4-1.88a12.86,12.86,0,0,0-.94-4.25,42.58,42.58,0,0,1,7.08-.4c3.66,0,7.81,0,11.27,1.67,2.63,1.27,4.27,3.93,5.53,6.36,1.62,3.13,3,6.49,4.35,9.8a190,190,0,0,1,7.11,20.7,52.83,52.83,0,0,0,1.89,5.31A12.23,12.23,0,0,1,121.59,157.79Zm10.57-10.68a10.33,10.33,0,0,1-1.32,4.36,45.9,45.9,0,0,1-1.57-4.48,192.83,192.83,0,0,0-7.18-20.88c-.65-1.59-1.31-3.2-2-4.81,6.2-2.06,11-7.84,13-10.54C133.14,122.9,132.84,135.05,132.16,147.11Z"/></g></g></svg>