<svg xmlns="http://www.w3.org/2000/svg" viewBox="0 0 200 200"><defs><style>.cls-1{fill:#262a2b;}.cls-2{fill:#fff;}</style></defs><g id="Capa_2" data-name="Capa 2"><g id="Layer_1" data-name="Layer 1"><circle class="cls-1" cx="100" cy="100" r="100"/><path class="cls-2" d="M119.14,140.23c-5,0-10-3-14.61-6.92v6.76c4.53,3.23,9.44,5.51,14.61,5.51A15.23,15.23,0,0,0,132.68,138a19.78,19.78,0,0,1-5.33-1.71A9.63,9.63,0,0,1,119.14,140.23Z"/><path class="cls-2" d="M94.74,138.42a12.31,12.31,0,1,1-4.54-9.55v-6.19a17.36,17.36,0,0,0-7.6-1.81h-.16a17.54,17.54,0,0,0,0,35.08h.16A17.55,17.55,0,0,0,100,138.57h0v-17H94.74v16.86Z"/><path class="cls-2" d="M126.15,78.13a4.86,4.86,0,0,1,2.58,1.8c.52-2,1-4.05,1.45-6.13,1.68-8.14,1.94-11,.75-15a10.8,10.8,0,0,0-5.72-7.08,9.46,9.46,0,0,1-2.12,5.83,6.33,6.33,0,0,1,1.92,3c1.36,4.61-.33,10.56-2.24,17.85A4.78,4.78,0,0,1,126.15,78.13Z"/><path class="cls-2" d="M68.85,78a5,5,0,0,1,3.22.15c-1.9-7.25-3.55-13.08-2.19-17.67a6.11,6.11,0,0,1,1.66-2.72,9.25,9.25,0,0,1-2.37-5.81,10.66,10.66,0,0,0-5.23,6.79c-1.18,4-.93,6.91.76,15,.43,2.1.93,4.19,1.47,6.17A4.85,4.85,0,0,1,68.85,78Z"/><path class="cls-2" d="M134.74,102.54a16.06,16.06,0,1,0,16,16A16.05,16.05,0,0,0,134.74,102.54Zm0,27.14a11.09,11.09,0,1,1,11.08-11.09A11.09,11.09,0,0,1,134.74,129.68Z"/><path class="cls-2" d="M134.74,112.1a6.49,6.49,0,1,0,6.49,6.49A6.5,6.5,0,0,0,134.74,112.1Z"/><path class="cls-2" d="M80.08,58.53c7.59,2.58,11.43.42,11.43-7.44s-6.89-7.57-11.43-6.46c-6.2,1.51-6.55,5.64-6.55,7.18S73.81,56.41,80.08,58.53Z"/><path class="cls-2" d="M115,58.53c6.26-2.12,6.54-5.17,6.54-6.72s-.35-5.67-6.54-7.18c-4.55-1.11-11.43-1.4-11.43,6.46S107.4,61.11,115,58.53Z"/><path class="cls-2" d="M121.46,98.63c.56-.7,1.09-1.41,1.56-2.1a35.87,35.87,0,0,0,4.69-9.4,4.32,4.32,0,0,0-8.3-2.43c0,.17-5.13,16.79-21.82,16.92-16.71-.13-21.78-16.75-21.84-16.92a4.32,4.32,0,0,0-8.29,2.43,36.34,36.34,0,0,0,5,9.9c.38.54.78,1.08,1.21,1.6A30.09,30.09,0,0,0,90.2,109.39c.39.1.8.18,1.21.27.22,3.43.8,8.82,2.27,8.82h7.41c1.46,0,2-5.31,2.27-8.75l1.17-.24A30,30,0,0,0,121.46,98.63Z"/></g></g></svg>