<svg xmlns="http://www.w3.org/2000/svg" viewBox="0 0 200 200"><defs><style>.cls-1{fill:#fff;}.cls-2{fill:#262a2b;stroke-width:2px;}.cls-2,.cls-3{stroke:#262a2b;stroke-miterlimit:10;}.cls-3{fill:none;stroke-linecap:round;stroke-width:4px;}</style></defs><g id="Capa_2" data-name="Capa 2"><g id="Layer_1" data-name="Layer 1"><circle class="cls-1" cx="100" cy="100" r="100"/><path class="cls-2" d="M124.52,125.78l-8.88,2.07-9.74-6.49-16.22-1.08-12.5,3.33a.69.69,0,0,1-.39-.12c-11.72-7.75-16.55-18.59-16.55-32.63a41.7,41.7,0,1,1,64.67,34.8A.78.78,0,0,1,124.52,125.78Zm-47.13-3.57,12.29-3L107,122.45l8.65,6.49,8.67-4.57A40.29,40.29,0,1,0,61.65,90.86C61.65,104.35,66.18,114.7,77.39,122.21Z"/><path class="cls-2" d="M127.17,118.92H76.71a.71.71,0,0,1-.71-.7V99.67a.69.69,0,0,1,.45-.65L93.8,92.2a.68.68,0,0,1,.74.14l7.13,6.86,7.67-6.87a.7.7,0,0,1,.73-.13L127.43,99a.72.72,0,0,1,.44.66v18.55A.7.7,0,0,1,127.17,118.92Zm-49.76-1.41h49.05V100.15L110,93.66l-7.84,7a.72.72,0,0,1-1,0l-7.27-7-16.48,6.48Z"/><path class="cls-2" d="M118.66,118.89H85.22a.7.7,0,0,1-.7-.7V106.55a.7.7,0,1,1,1.4,0v10.93h32V106.55a.71.71,0,1,1,1.41,0v11.64A.7.7,0,0,1,118.66,118.89Z"/><path class="cls-2" d="M110.28,102.46H93.59a.7.7,0,0,1-.7-.7V92.85a.7.7,0,1,1,1.4,0v8.2h15.28v-8.2a.71.71,0,0,1,1.41,0v8.91A.71.71,0,0,1,110.28,102.46Z"/><path class="cls-2" d="M104.44,108.27h-5a.7.7,0,0,1-.7-.7v-5.81a.71.71,0,0,1,.7-.71h5a.7.7,0,0,1,.7.71v5.81A.7.7,0,0,1,104.44,108.27Zm-4.31-1.4h3.61v-4.41h-3.61Z"/><path class="cls-2" d="M106.49,118.92H96.87a.7.7,0,0,1-.69-.87l2.56-10.64a.7.7,0,0,1,.68-.54h5a.7.7,0,0,1,.69.57l2.05,10.64a.71.71,0,0,1-.69.84Zm-8.73-1.41h7.88l-1.78-9.24H100Z"/><path class="cls-2" d="M102.16,89.23A13.21,13.21,0,1,1,115.37,76,13.23,13.23,0,0,1,102.16,89.23Zm0-25A11.8,11.8,0,1,0,114,76,11.81,11.81,0,0,0,102.16,64.22Z"/><path class="cls-2" d="M111.64,73.85a14.43,14.43,0,0,1-8.62-2.7.71.71,0,0,1,.86-1.12,13.66,13.66,0,0,0,10.28,2.2.7.7,0,0,1,.81.57.7.7,0,0,1-.57.81A15.82,15.82,0,0,1,111.64,73.85Z"/><path class="cls-2" d="M95.57,73.61a15.44,15.44,0,0,1-5.49-1,.7.7,0,1,1,.49-1.31,14.07,14.07,0,0,0,5,.88c5.77,0,10.47-3.26,10.47-7.28a.7.7,0,0,1,.7-.7.7.7,0,0,1,.71.7C107.45,69.71,102.12,73.61,95.57,73.61Z"/><path class="cls-3" d="M68.06,128.18c3.82-2.19,10.28-5.8,15.15-7.33a19.35,19.35,0,0,1,2-.5,25.45,25.45,0,0,1,4.69-.33c1.39,0,2.91.07,4.52.2.94.08,1.9.18,2.87.31,1.5.19,3,.43,4.5.73,1,.21,2,.43,2.92.68a32.58,32.58,0,0,1,4.35,1.48,16.43,16.43,0,0,1,2.84,1.49h0a6.17,6.17,0,0,1,3,4,3.83,3.83,0,0,1-.19,2.18c-2.07,4.89-16.13.74-19,0"/><path class="cls-3" d="M78.51,145.06c15.5-6.05,18,2.19,30.63,1.25,7.34-.54,31.8-14.45,31.39-20-.25-3.43-4.19-3.67-6.87-3.32h-.11a41.33,41.33,0,0,0-9.48,2.87c-1.59.67-3.17,1.41-4.61,2.18-1,.53-1.92,1.06-2.77,1.61a23.47,23.47,0,0,0-2,1.42"/><polygon class="cls-3" points="78.5 145.06 79.06 149.38 58.88 158.44 56.37 131.8 68.06 128.18 78.5 145.06"/><path class="cls-3" d="M69.29,143.69a2,2,0,0,1,.45,4.05,2,2,0,1,1-.45-4.05Z"/></g></g></svg>