<svg xmlns="http://www.w3.org/2000/svg" viewBox="0 0 200 200"><defs><style>.cls-1{fill:#262a2b;}.cls-2{fill:#fff;}</style></defs><g id="Capa_2" data-name="Capa 2"><g id="Layer_1" data-name="Layer 1"><circle class="cls-1" cx="100" cy="100" r="100"/><path class="cls-2" d="M66.66,127.23H58a7.12,7.12,0,0,1-7.3-7.08V108.84a1.79,1.79,0,1,1,3.58,0v11.31A3.57,3.57,0,0,0,58,123.64h8.63c1.93,0,3.17-1.37,3.17-3.49v-1.52a1.79,1.79,0,1,1,3.58,0v1.52C73.41,124.25,70.57,127.23,66.66,127.23Z"/><path class="cls-2" d="M106.67,118.85H67.9a17.86,17.86,0,0,1-8.47-2.51l-.06,0-2.06-1.24A19.41,19.41,0,0,1,47.14,98.12V92.37A14.86,14.86,0,0,1,50.64,83l0,0,4.13-4.87H47.87A6.14,6.14,0,0,1,41.73,72V69.76a5.57,5.57,0,0,1,5.56-5.56h7.5a4.58,4.58,0,0,1,4.49,3.41l.16.61,0,0a.7.7,0,0,0,.3.41h.49l.49-1,0,0A29,29,0,0,1,86.35,52.2H114.2a29.06,29.06,0,0,1,25.61,15.47l0,0,.49,1H141a.42.42,0,0,0,.28-.3l.16-.76v0a4.49,4.49,0,0,1,4.49-3.35h7.5a4.86,4.86,0,0,1,4.86,4.85V72.8A5.31,5.31,0,0,1,153,78.11h-7.31l4,4.78a14.84,14.84,0,0,1,3.24,9.48,1.79,1.79,0,0,1-3.58,0,11.31,11.31,0,0,0-2.43-7.21l-5-6a1.92,1.92,0,0,1-.23-.35l-.82-1.67a1.8,1.8,0,0,1,1.61-2.58H153a1.73,1.73,0,0,0,1.73-1.72V69.05a1.27,1.27,0,0,0-1.28-1.27h-7.5c-.2,0-.85,0-1,.61l-.17.76v0a4,4,0,0,1-3.76,3h-1.75a1.78,1.78,0,0,1-1.59-1l-1-1.93A25.49,25.49,0,0,0,114.2,55.78H86.35A25.46,25.46,0,0,0,63.93,69.34l-1,1.93a1.78,1.78,0,0,1-1.59,1H59.74A4,4,0,0,1,56,69.15l-.16-.6v0a1,1,0,0,0-1-.72h-7.5a2,2,0,0,0-2,2V72a2.56,2.56,0,0,0,2.56,2.55H58.1a1.8,1.8,0,0,1,1.53.86,1.77,1.77,0,0,1,.07,1.74l-.83,1.65a1.92,1.92,0,0,1-.23.35l-5.23,6.16a11.32,11.32,0,0,0-2.69,7.09v5.75A15.86,15.86,0,0,0,59.07,112l.06,0,2,1.24a14.44,14.44,0,0,0,6.72,2h38.77a1.79,1.79,0,0,1,0,3.58Z"/><path class="cls-2" d="M106.78,111.25H82.46A62.57,62.57,0,0,1,74.64,110c-2.07-.39-3.45-1.73-3.54-3.44a3.69,3.69,0,0,1,3-3.6l.18,0c.34-.06,8.48-1.56,12.63-1.56h19.9a1.79,1.79,0,1,1,0,3.58H86.88A92.72,92.72,0,0,0,75,106.45a1.63,1.63,0,0,0,.28.07h0a59.59,59.59,0,0,0,7.11,1.14h24.32a1.79,1.79,0,1,1,0,3.58Zm-40.62-9.66a4,4,0,0,1-1.19-.17l-6.24-1.78A9,9,0,0,1,53.14,95a1.79,1.79,0,1,1,3.22-1.57,5.4,5.4,0,0,0,3.35,2.82L66,98a.78.78,0,0,0,.84-.29l1-1.33a.8.8,0,0,0,.14-.6.77.77,0,0,0-.32-.52l-10-7.07a1.79,1.79,0,0,1,2.07-2.93l10,7.08a4.37,4.37,0,0,1,1,6.17l-1,1.34A4.41,4.41,0,0,1,66.16,101.59Zm34.1-21.48C79.56,80.11,69.68,77,67.15,76h0A1.78,1.78,0,0,1,66,73.75a21.66,21.66,0,0,1,7.38-10.6A1.79,1.79,0,1,1,75.58,66,18.16,18.16,0,0,0,70,73.18c3.72,1.14,13.18,3.35,30.23,3.35,3.41,0,20.21-.17,30.28-3.36a17,17,0,0,0-5.95-7.56,1.79,1.79,0,0,1,2.09-2.91,20.48,20.48,0,0,1,7.85,11.09A1.8,1.8,0,0,1,133.37,76l0,0C130.78,77,120.83,80.11,100.26,80.11Zm-32.81-4Zm0,0Zm0,0Zm0,0Zm65.62,0Zm0,0Zm0,0h0Zm0,0Zm0,0Z"/><path class="cls-2" d="M135,147.8a1.8,1.8,0,0,1-.95-.27l-8.73-5.44,0,0a28.66,28.66,0,0,1-13.45-24V96.87a1.77,1.77,0,0,1,.81-1.5,1.8,1.8,0,0,1,1.7-.14l4.21,1.85A16.19,16.19,0,0,0,130.37,97l3.85-1.77a1.79,1.79,0,0,1,1.47,0l4.23,1.86A16.29,16.29,0,0,0,151.76,97l3.84-1.77a1.78,1.78,0,0,1,2.53,1.63v21.22a28.64,28.64,0,0,1-13.45,24l0,0-8.74,5.44A1.8,1.8,0,0,1,135,147.8Zm-7.78-8.74L135,143.9l7.78-4.84a25.09,25.09,0,0,0,11.8-21V99.66l-1.33.62-.07,0a19.84,19.84,0,0,1-14.56.1l-.07,0L135,98.83l-3.17,1.45-.07,0a19.84,19.84,0,0,1-14.56.08l-.07,0-1.73-.77v18.48A25.09,25.09,0,0,0,127.19,139.06Zm16.52,1.51Z"/><path class="cls-2" d="M130.76,127.29a1.79,1.79,0,0,1-1.27-.52l-4.87-4.88a1.79,1.79,0,0,1,2.53-2.53l3.61,3.61,13-13a1.79,1.79,0,1,1,2.53,2.53L132,126.77A1.76,1.76,0,0,1,130.76,127.29Z"/></g></g></svg>