<svg xmlns="http://www.w3.org/2000/svg" viewBox="0 0 200 200"><defs><style>.cls-1{fill:#fff;}.cls-2{fill:#333;}</style></defs><g id="Capa_2" data-name="Capa 2"><g id="Layer_1" data-name="Layer 1"><circle class="cls-1" cx="100" cy="100" r="100"/><path class="cls-2" d="M126.55,138.08a1.91,1.91,0,0,1-.93-.23L100,124.38,74.38,137.85a2,2,0,0,1-2.9-2.1l4.89-28.53L55.64,87a2,2,0,0,1,1.11-3.41L85.4,79.44l12.81-26a2,2,0,0,1,3.58,0l12.81,26,28.65,4.16A2,2,0,0,1,144.36,87l-20.73,20.21,4.89,28.53a2,2,0,0,1-.79,1.95A2,2,0,0,1,126.55,138.08Zm-26.55-18a2,2,0,0,1,.93.23l23,12.08-4.38-25.57a2,2,0,0,1,.57-1.77L138.66,87,113,83.25a2,2,0,0,1-1.51-1.1L100,58.89,88.52,82.15A2,2,0,0,1,87,83.25L61.34,87l18.58,18.11a2,2,0,0,1,.57,1.77l-4.38,25.57,23-12.08A2,2,0,0,1,100,120.12Z"/><rect class="cls-2" x="98" y="37.5" width="4" height="6.29"/><rect class="cls-2" x="68.32" y="45.45" width="4" height="6.29" transform="translate(-14.88 41.67) rotate(-30)"/><rect class="cls-2" x="46.6" y="67.18" width="4" height="6.29" transform="translate(-36.6 77.26) rotate(-60)"/><rect class="cls-2" x="37.5" y="98" width="6.29" height="4"/><rect class="cls-2" x="45.46" y="127.67" width="6.29" height="4" transform="matrix(0.87, -0.5, 0.5, 0.87, -58.32, 41.66)"/><rect class="cls-2" x="67.18" y="149.4" width="6.29" height="4" transform="translate(-95.95 136.6) rotate(-60)"/><rect class="cls-2" x="98" y="156.21" width="4" height="6.29"/><rect class="cls-2" x="127.68" y="148.25" width="4" height="6.29" transform="translate(-58.33 85.12) rotate(-30)"/><rect class="cls-2" x="149.4" y="126.53" width="4" height="6.29" transform="translate(-36.61 195.94) rotate(-60)"/><rect class="cls-2" x="156.21" y="98" width="6.29" height="4"/><rect class="cls-2" x="148.25" y="68.32" width="6.29" height="4" transform="translate(-14.88 85.1) rotate(-29.99)"/><rect class="cls-2" x="126.53" y="46.6" width="6.29" height="4" transform="matrix(0.5, -0.87, 0.87, 0.5, 22.75, 136.6)"/></g></g></svg>