<svg xmlns="http://www.w3.org/2000/svg" viewBox="0 0 200 200"><defs><style>.cls-1{fill:#fff;}.cls-2{fill:none;stroke:#000;stroke-miterlimit:10;stroke-width:4.47px;}</style></defs><g id="Capa_2" data-name="Capa 2"><g id="Layer_1" data-name="Layer 1"><circle class="cls-1" cx="100" cy="100" r="100"/><polyline class="cls-2" points="104.99 131.83 104.99 143 84.88 154.17 64.78 143 64.78 131.83"/><path class="cls-2" d="M111.69,93.85v15.64h2.24l11.17-13.4h15.63a6.71,6.71,0,0,0,6.71-6.7V58.11a6.71,6.71,0,0,0-6.71-6.7H91.59a6.7,6.7,0,0,0-6.71,6.7v8.94"/><path class="cls-2" d="M89.35,82.68A11.17,11.17,0,0,1,78.18,93.85H67V91.62a17.88,17.88,0,0,1,35.75,0v11.17a17.88,17.88,0,0,1-35.75,0v-2.23"/><path class="cls-2" d="M125.1,156.41V149.7a17.88,17.88,0,0,0-17.88-17.87H96.05L84.88,151.94"/><path class="cls-2" d="M44.67,156.41V149.7a17.87,17.87,0,0,1,17.87-17.87H73.71l11.17,20.11"/><line class="cls-2" x1="113.93" y1="73.75" x2="118.39" y2="73.75"/><line class="cls-2" x1="122.86" y1="73.75" x2="127.33" y2="73.75"/><line class="cls-2" x1="104.99" y1="73.75" x2="109.46" y2="73.75"/></g></g></svg>