<svg xmlns="http://www.w3.org/2000/svg" viewBox="0 0 200 200"><defs><style>.cls-1{fill:#262a2b;}.cls-2{fill:#fff;}</style></defs><g id="Capa_2" data-name="Capa 2"><g id="Layer_1" data-name="Layer 1"><circle class="cls-1" cx="100" cy="100" r="100"/><path class="cls-2" d="M147.63,52.35a12.72,12.72,0,0,0-18,0L110.12,71.9,70.91,58.3h-.06l0,0c-6.62-2.07-9.45.31-16.64,7.5-.08.08-.11.19-.19.28s-.17.15-.24.25a2.49,2.49,0,0,0-.11.29,3,3,0,0,0-.23.59,3.09,3.09,0,0,0-.12.59,3,3,0,0,0,0,.6,4.11,4.11,0,0,0,.12.61,3.65,3.65,0,0,0,.23.54,3.31,3.31,0,0,0,.37.55c.06.07.09.17.16.24s.19.11.28.19.15.18.25.24L89.1,92.91,76,106h0c-.34.35-.65.71-1,1.06l-13.72-4.76h-.06l-.05,0c-4.43-1.34-8.23,2.46-11.61,5.84-.08.08-.11.19-.18.27s-.18.15-.25.26-.06.19-.11.28a3.28,3.28,0,0,0-.23.59,3.06,3.06,0,0,0-.1,1.2,2.46,2.46,0,0,0,.12.6,2.31,2.31,0,0,0,.23.54,2.9,2.9,0,0,0,.36.55c.07.08.09.17.16.24a2.31,2.31,0,0,0,.28.19c.1.08.15.18.26.25l15.54,10c-.79,3.87-.18,7.13,2,9.27h0a8.59,8.59,0,0,0,6.29,2.36,14.89,14.89,0,0,0,3-.35l10,15.49c0,.08.15.11.2.19a4,4,0,0,0,.23.34,3,3,0,0,0,.53.35,1.85,1.85,0,0,0,.37.25,3.19,3.19,0,0,0,1.37.34h0a3.32,3.32,0,0,0,1.07-.2L91,151a2.37,2.37,0,0,0,.36-.17c.11-.06.16-.16.25-.24a1.73,1.73,0,0,0,.28-.19c3.38-3.37,7.2-7.19,5.84-11.6l0,0s0,0,0-.06L92.88,125c.35-.33.71-.64,1.06-1h0l13.12-13.13,22.18,34.41c0,.08.14.11.2.18a2.64,2.64,0,0,0,.23.35,3.64,3.64,0,0,0,.52.35c.13.08.24.18.38.25a3.12,3.12,0,0,0,1.37.34h0a3.08,3.08,0,0,0,1.07-.21l.3-.13c.12-.06.25-.1.37-.17a3,3,0,0,0,.25-.25,2.68,2.68,0,0,0,.28-.18c7.18-7.19,9.56-10,7.5-16.64a.05.05,0,0,0,0,0s0,0,0-.06l-13.6-39.21,19.55-19.55A12.72,12.72,0,0,0,147.63,52.35Zm-15.17,86.06-22.15-34.36a3,3,0,0,0-.25-.25,2.68,2.68,0,0,0-.18-.28c-.07-.07-.17-.1-.24-.16a3.25,3.25,0,0,0-.55-.36,3,3,0,0,0-.55-.24,2.83,2.83,0,0,0-.58-.11,3.35,3.35,0,0,0-.63,0,3.59,3.59,0,0,0-.57.11,3.51,3.51,0,0,0-.61.24c-.09,0-.19,0-.28.11s-.16.17-.25.24-.2.11-.28.19L89.41,119.46c-.77.76-1.55,1.49-2.34,2.17l0,0a3.06,3.06,0,0,0-.57.73,2.69,2.69,0,0,0-.2.27,3.78,3.78,0,0,0-.17.6,2.91,2.91,0,0,0-.15.58c0,.13,0,.26,0,.39a3.49,3.49,0,0,0,.12.85v0l5.41,15.58A6.14,6.14,0,0,1,90.05,143l-9-14c0-.07-.12-.11-.17-.18a2.93,2.93,0,0,0-.46-.47,2.45,2.45,0,0,0-1-.6,3.44,3.44,0,0,0-.55-.15,4.36,4.36,0,0,0-1.25.07,2.34,2.34,0,0,0-.26,0c-2.93,1-4.59.72-5.15.18s-.82-2.23.18-5.15c0-.08,0-.16,0-.25a3.61,3.61,0,0,0,.08-.66,2.82,2.82,0,0,0,0-.58,3.13,3.13,0,0,0-.16-.6,3.25,3.25,0,0,0-.23-.54,3.5,3.5,0,0,0-.37-.49,3.12,3.12,0,0,0-.45-.44c-.08-.06-.12-.14-.19-.19l-14-9a6.06,6.06,0,0,1,2.25-1.48l15.6,5.41a3.22,3.22,0,0,0,1,.18,3.11,3.11,0,0,0,1.17-.25c.11,0,.2-.1.31-.15a3.19,3.19,0,0,0,.81-.61s.1-.06.14-.11c.69-.79,1.42-1.57,2.18-2.34L96.46,94.64a4,4,0,0,0,.23-.34c.06-.08.15-.11.2-.19a2.49,2.49,0,0,0,.11-.29,3.43,3.43,0,0,0,.35-1.18,3,3,0,0,0,0-.6,2.9,2.9,0,0,0-.11-.6,3,3,0,0,0-.24-.55,3.7,3.7,0,0,0-.36-.55c-.06-.07-.09-.17-.16-.24a2.68,2.68,0,0,0-.28-.18,3,3,0,0,0-.25-.25L61.56,67.52c4.18-4,5-3.85,7.25-3.15l41.1,14.26a3.54,3.54,0,0,0,1,.17,3.12,3.12,0,0,0,1.1-.21,3,3,0,0,0,.31-.15,3.61,3.61,0,0,0,.69-.46c.06,0,.12-.07.17-.12l21-21a6.28,6.28,0,0,1,8.88,8.88l-21,21a3.11,3.11,0,0,0-.25.38,3,3,0,0,0-.4.6,2.74,2.74,0,0,0-.15.58,2.54,2.54,0,0,0-.12.61,2.92,2.92,0,0,0,.09.66,4.26,4.26,0,0,0,.06.5l14.26,41.1h0C136.32,133.46,136.41,134.25,132.46,138.41Z"/></g></g></svg>