<svg xmlns="http://www.w3.org/2000/svg" viewBox="0 0 46.38 37.69"><defs><style>.cls-1{fill:#fff;}</style></defs><g id="Capa_2" data-name="Capa 2"><g id="Layer_1" data-name="Layer 1"><path class="cls-1" d="M14.59,37.69c17.5,0,27.07-14.5,27.07-27.07q0-.61,0-1.23a19.36,19.36,0,0,0,4.75-4.93A18.94,18.94,0,0,1,40.91,6,9.58,9.58,0,0,0,45.1.7a19.46,19.46,0,0,1-6,2.31A9.52,9.52,0,0,0,22.6,9.51a9.84,9.84,0,0,0,.24,2.18A27,27,0,0,1,3.23,1.74a9.51,9.51,0,0,0,2.95,12.7,9.39,9.39,0,0,1-4.32-1.19v.12A9.52,9.52,0,0,0,9.49,22.7,9.32,9.32,0,0,1,7,23a9.53,9.53,0,0,1-1.79-.18,9.51,9.51,0,0,0,8.89,6.61A19.06,19.06,0,0,1,0,33.41a26.84,26.84,0,0,0,14.59,4.28Z"/></g></g></svg>